<?xml version="1.0" encoding="utf-8"?>
<!-- Generator: Adobe Illustrator 23.0.0, SVG Export Plug-In . SVG Version: 6.00 Build 0)  -->
<svg version="1.1" id="Слой_1" xmlns="http://www.w3.org/2000/svg" xmlns:xlink="http://www.w3.org/1999/xlink" x="0px" y="0px"
	 viewBox="0 0 1920 1080" style="enable-background:new 0 0 1920 1080;" xml:space="preserve">
<style type="text/css">
	.st0{fill:none;stroke:#FFF85C;stroke-width:10;stroke-linecap:round;stroke-linejoin:round;}
</style>
<path class="st0" d="M0.3,387.7c11.9,7.6,24.6,14.7,38.5,21.3c73.1,35,151.7,60.8,231.5,74.9c75.1,13.3,156,16.2,231.6,5
	c90.6-13.4,179.1-38.8,266.5-65.6c182.4-55.8,360.8-141.9,551.2-167.6c135.7-18.3,282.6-6.7,395.2,77.5
	c71.2,53.2,113.8,172.9,63.1,253.7c-16,25.4-41.3,47.6-73.2,45.7c-32.1-1.9-57.8-22.3-69-51.9c-28.2-74.5,26.7-157.6,80.7-205.2
	c42.1-37.1,92-64.5,145.4-81.4c20.6-6.5,42.1-9.7,63.6-10.5"/>
</svg>
