<?xml version="1.0" encoding="utf-8"?>
<!-- Generator: Adobe Illustrator 23.0.0, SVG Export Plug-In . SVG Version: 6.00 Build 0)  -->
<svg version="1.1" id="Слой_1" xmlns="http://www.w3.org/2000/svg" xmlns:xlink="http://www.w3.org/1999/xlink" x="0px" y="0px"
	 viewBox="0 0 1920 1080" style="enable-background:new 0 0 1920 1080;" xml:space="preserve">
<style type="text/css">
	.st0{fill:none;stroke:#FFF85C;stroke-width:9.5616;stroke-linecap:round;stroke-linejoin:round;}
</style>
<path class="st0" d="M-16,323.6c46.5-50.5,96.5-91.2,158.2-121.9c53.3-26.6,111.8-44.6,170.1-56.3c98.4-19.8,214.7-17.9,303.2,35.1
	c38.6,23.1,71.8,56.7,97.4,93.5c27.5,39.4,44.5,84.4,66.1,127c24.3,47.9,54,95.6,98,127.8c43.6,31.8,99.2,43.7,152.6,41.6
	c109.9-4.3,204.3-85.5,295.5-137.8c87.4-50.2,187.2-91.8,289.1-96.3c84.7-3.7,150.9,37.1,197.4,105.8
	c39.8,58.8,75.9,122.1,108.3,185.3"/>
</svg>
