<?xml version="1.0" encoding="utf-8"?>
<!-- Generator: Adobe Illustrator 23.0.0, SVG Export Plug-In . SVG Version: 6.00 Build 0)  -->
<svg version="1.1" id="Слой_1" xmlns="http://www.w3.org/2000/svg" xmlns:xlink="http://www.w3.org/1999/xlink" x="0px" y="0px"
	 viewBox="0 0 85.4 52.6" style="enable-background:new 0 0 85.4 52.6;" xml:space="preserve">
<style type="text/css">
	.st0{fill:none;stroke:#FF5631;stroke-width:3;stroke-linecap:round;stroke-linejoin:round;stroke-miterlimit:10;}
</style>
<line class="st0" x1="1.5" y1="24.2" x2="27.9" y2="24.2"/>
<g>
	<path class="st0" d="M26.6,24.2c6.3,0,11.4-5.1,11.4-11.4S32.9,1.5,26.6,1.5H1.5v49.6h26.4c7.4,0,13.4-6,13.4-13.4
		s-6-13.4-13.4-13.4"/>
	<path class="st0" d="M47.2,31.2h36.6c-0.8-9.4-8.7-16.9-18.3-16.9c-10.2,0-18.4,8.2-18.4,18.4s8.2,18.4,18.4,18.4
		c7.6,0,14.2-4.7,17-11.3"/>
	<line class="st0" x1="51.7" y1="3.8" x2="78.7" y2="3.8"/>
</g>
</svg>
