<?xml version="1.0" encoding="utf-8"?>
<!-- Generator: Adobe Illustrator 23.0.0, SVG Export Plug-In . SVG Version: 6.00 Build 0)  -->
<svg version="1.1" id="Слой_1" xmlns="http://www.w3.org/2000/svg" xmlns:xlink="http://www.w3.org/1999/xlink" x="0px" y="0px"
	 viewBox="0 0 60.7 53" style="enable-background:new 0 0 60.7 53;" xml:space="preserve">
<style type="text/css">
	.st0{fill:none;stroke:#FF5631;stroke-width:3;stroke-miterlimit:10;}
</style>
<g>
	<path class="st0" d="M2.4,22.6l54.9-21c1-0.4,2.1,0.5,1.9,1.6l-9.5,46.9c-0.3,1.3-1.7,1.8-2.8,1L25.5,35.6
		c-0.7-0.5-0.8-1.6-0.2-2.3l16.6-16.6c0.1-0.1,0-0.3-0.1-0.2l-27.1,12C14,29,13,29.1,12.2,28.8l-9.9-3.7C1.2,24.7,1.2,23,2.4,22.6z"
		/>
	<path class="st0" d="M13.2,28.7l9.4,20.5c0.5,1.4,2.2,1.8,3.4,0.9l7.3-9.2"/>
	<line class="st0" x1="24.2" y1="50.6" x2="24.9" y2="34.4"/>
</g>
</svg>
